<svg version="1.0" xmlns="http://www.w3.org/2000/svg"
 width="75pt" height="75pt" viewBox="0 0 1280.000000 1280.000000"
 preserveAspectRatio="xMidYMid meet">
<metadata>
Created by potrace 1.15, written by Peter Selinger 2001-2017
</metadata>
    <g transform="translate(0.000000,1280.000000) scale(0.100000,-0.100000)"
    stroke="none">
        <path class="change-fill" d="M0 12160 l0 -640 640 0 640 0 0 -640 0 -640 -640 0 -640 0 0 -640 0
        -640 640 0 640 0 0 -640 0 -640 -640 0 -640 0 0 -640 0 -640 640 0 640 0 0
        -640 0 -640 -640 0 -640 0 0 -640 0 -640 640 0 640 0 0 -640 0 -640 -640 0
        -640 0 0 -640 0 -640 640 0 640 0 0 -640 0 -640 640 0 640 0 0 640 0 640 640
        0 640 0 0 -640 0 -640 640 0 640 0 0 640 0 640 640 0 640 0 0 -640 0 -640 640
        0 640 0 0 640 0 640 640 0 640 0 0 -640 0 -640 640 0 640 0 0 640 0 640 640 0
        640 0 0 -640 0 -640 640 0 640 0 0 640 0 640 -640 0 -640 0 0 640 0 640 640 0
        640 0 0 640 0 640 -640 0 -640 0 0 640 0 640 640 0 640 0 0 640 0 640 -640 0
        -640 0 0 640 0 640 640 0 640 0 0 640 0 640 -640 0 -640 0 0 640 0 640 640 0
        640 0 0 640 0 640 -640 0 -640 0 0 640 0 640 -640 0 -640 0 0 -640 0 -640
        -640 0 -640 0 0 640 0 640 -640 0 -640 0 0 -640 0 -640 -640 0 -640 0 0 640 0
        640 -640 0 -640 0 0 -640 0 -640 -640 0 -640 0 0 640 0 640 -640 0 -640 0 0
        -640 0 -640 -640 0 -640 0 0 640 0 640 -640 0 -640 0 0 -640z m3840 -1280 l0
        -640 640 0 640 0 0 640 0 640 640 0 640 0 0 -640 0 -640 640 0 640 0 0 640 0
        640 640 0 640 0 0 -640 0 -640 640 0 640 0 0 640 0 640 640 0 640 0 0 -640 0
        -640 -640 0 -640 0 0 -640 0 -640 640 0 640 0 0 -640 0 -640 -640 0 -640 0 0
        -640 0 -640 640 0 640 0 0 -640 0 -640 -640 0 -640 0 0 -640 0 -640 640 0 640
        0 0 -640 0 -640 -640 0 -640 0 0 -640 0 -640 -640 0 -640 0 0 640 0 640 -640
        0 -640 0 0 -640 0 -640 -640 0 -640 0 0 640 0 640 -640 0 -640 0 0 -640 0
        -640 -640 0 -640 0 0 640 0 640 -640 0 -640 0 0 -640 0 -640 -640 0 -640 0 0
        640 0 640 640 0 640 0 0 640 0 640 -640 0 -640 0 0 640 0 640 640 0 640 0 0
        640 0 640 -640 0 -640 0 0 640 0 640 640 0 640 0 0 640 0 640 -640 0 -640 0 0
        640 0 640 640 0 640 0 0 640 0 640 640 0 640 0 0 -640z" fill="grey"/>
        <path class="change-fill" d="M2560 9600 l0 -640 640 0 640 0 0 -640 0 -640 -640 0 -640 0 0 -640
        0 -640 640 0 640 0 0 -640 0 -640 -640 0 -640 0 0 -640 0 -640 640 0 640 0 0
        -640 0 -640 640 0 640 0 0 640 0 640 640 0 640 0 0 -640 0 -640 640 0 640 0 0
        640 0 640 640 0 640 0 0 -640 0 -640 640 0 640 0 0 640 0 640 -640 0 -640 0 0
        640 0 640 640 0 640 0 0 640 0 640 -640 0 -640 0 0 640 0 640 640 0 640 0 0
        640 0 640 -640 0 -640 0 0 640 0 640 -640 0 -640 0 0 -640 0 -640 -640 0 -640
        0 0 640 0 640 -640 0 -640 0 0 -640 0 -640 -640 0 -640 0 0 640 0 640 -640 0
        -640 0 0 -640z m3840 -1280 l0 -640 640 0 640 0 0 640 0 640 640 0 640 0 0
        -640 0 -640 -640 0 -640 0 0 -640 0 -640 640 0 640 0 0 -640 0 -640 -640 0
        -640 0 0 -640 0 -640 -640 0 -640 0 0 640 0 640 -640 0 -640 0 0 -640 0 -640
        -640 0 -640 0 0 640 0 640 640 0 640 0 0 640 0 640 -640 0 -640 0 0 640 0 640
        640 0 640 0 0 640 0 640 640 0 640 0 0 -640z" fill="grey"/>
        <path class="change-fill" d="M5120 7040 l0 -640 640 0 640 0 0 -640 0 -640 640 0 640 0 0 640 0
        640 -640 0 -640 0 0 640 0 640 -640 0 -640 0 0 -640z" fill="grey"/>
    </g>
</svg>
